<svg width="16" height="16" viewBox="0 0 16 16" fill="none" xmlns="http://www.w3.org/2000/svg">
<path d="M2.83333 3.74C4.18 5.46667 6.66666 8.66667 6.66666 8.66667V12.6667C6.66666 13.0333 6.96666 13.3333 7.33333 13.3333H8.66666C9.03333 13.3333 9.33333 13.0333 9.33333 12.6667V8.66667C9.33333 8.66667 11.8133 5.46667 13.16 3.74C13.2364 3.64158 13.2836 3.52369 13.2963 3.39974C13.309 3.27579 13.2866 3.15077 13.2317 3.03891C13.1769 2.92706 13.0917 2.83286 12.9859 2.76705C12.8801 2.70124 12.7579 2.66646 12.6333 2.66667H3.36C2.80666 2.66667 2.49333 3.3 2.83333 3.74Z" fill="currentColor"/>
</svg>
