<svg width="18" height="18" viewBox="0 0 18 18" fill="none" xmlns="http://www.w3.org/2000/svg">
<path d="M9 1.125C11.2266 1.18359 13.0811 1.9541 14.5635 3.43652C16.0459 4.91895 16.8164 6.77344 16.875 9C16.8164 11.2266 16.0459 13.0811 14.5635 14.5635C13.0811 16.0459 11.2266 16.8164 9 16.875C6.77344 16.8164 4.91895 16.0459 3.43652 14.5635C1.9541 13.0811 1.18359 11.2266 1.125 9C1.18359 6.77344 1.9541 4.91895 3.43652 3.43652C4.91895 1.9541 6.77344 1.18359 9 1.125ZM9 2.25C7.08985 2.29687 5.49902 2.95607 4.22754 4.22754C2.95606 5.49902 2.29688 7.08984 2.25 9C2.29688 10.9102 2.95605 12.501 4.22754 13.7725C5.49902 15.0439 7.08985 15.7031 9 15.75C10.9101 15.7031 12.501 15.0439 13.7725 13.7725C15.0439 12.501 15.7031 10.9101 15.75 9C15.7031 7.08985 15.0439 5.49902 13.7725 4.22754C12.501 2.95606 10.9101 2.29688 9 2.25ZM8.4375 4.5C8.60156 4.5 8.73633 4.55274 8.8418 4.6582C8.94727 4.76367 9 4.89844 9 5.0625V9H12.9375C13.3125 9 13.5 9.1875 13.5 9.5625C13.5 9.9375 13.3125 10.125 12.9375 10.125H8.43359C8.06251 10.1237 7.8763 9.9375 7.875 9.56641V5.0625C7.875 4.89844 7.92774 4.76367 8.0332 4.6582C8.13867 4.55274 8.27344 4.5 8.4375 4.5Z" fill="#303133"/>
</svg>
