<svg viewBox="0 0 20 20" fill="none" xmlns="http://www.w3.org/2000/svg">
<path d="M8.125 11.25C8.29075 11.25 8.44941 11.316 8.56663 11.4333C8.68386 11.5506 8.75 11.7092 8.75 11.875V16.875C8.75 17.0408 8.68386 17.1994 8.56663 17.3167C8.44941 17.4338 8.29075 17.5 8.125 17.5H3.125C2.95925 17.5 2.80059 17.4338 2.68337 17.3167C2.56614 17.1994 2.5 17.0408 2.5 16.875V11.875C2.5 11.7092 2.56614 11.5506 2.68337 11.4333C2.80059 11.316 2.95925 11.25 3.125 11.25H8.125ZM16.8739 11.25C17.0396 11.25 17.1983 11.3162 17.3156 11.4333C17.4327 11.5506 17.4989 11.7093 17.4989 11.875V16.875C17.4989 17.0407 17.4327 17.1994 17.3156 17.3167C17.1983 17.4338 17.0396 17.5 16.8739 17.5H11.875C11.7092 17.5 11.5506 17.4338 11.4333 17.3167C11.3162 17.1994 11.25 17.0408 11.25 16.875V11.875C11.25 11.7092 11.3162 11.5506 11.4333 11.4333C11.5506 11.3162 11.7092 11.25 11.875 11.25H16.8739ZM8.125 2.5011C8.29072 2.5011 8.44942 2.56731 8.56663 2.68447C8.68381 2.80164 8.74995 2.96039 8.75 3.12609V8.125C8.75 8.29075 8.68386 8.44941 8.56663 8.56663C8.44941 8.68386 8.29075 8.75 8.125 8.75H3.125C2.95925 8.75 2.80059 8.68386 2.68337 8.56663C2.56614 8.44941 2.5 8.29075 2.5 8.125V3.12609C2.50004 2.96039 2.56619 2.80164 2.68337 2.68447C2.80058 2.56731 2.95928 2.5011 3.125 2.5011H8.125ZM16.8739 2.5011C17.0396 2.50113 17.1983 2.56729 17.3156 2.68447C17.4327 2.80164 17.4989 2.96039 17.4989 3.12609V8.125C17.4989 8.29072 17.4327 8.44942 17.3156 8.56663C17.1983 8.68379 17.0396 8.74995 16.8739 8.75H11.875C11.7092 8.75 11.5506 8.68386 11.4333 8.56663C11.3161 8.44941 11.25 8.29075 11.25 8.125V3.12609C11.25 2.96039 11.3162 2.80164 11.4333 2.68447C11.5506 2.56731 11.7093 2.5011 11.875 2.5011H16.8739Z" fill="currentColor"/>
</svg>