<svg viewBox="0 0 20 20" fill="none" xmlns="http://www.w3.org/2000/svg">
<path d="M19.1639 12.2796C17.9036 17.3361 12.7823 20.4237 7.71657 19.1627C2.66011 17.8985 -0.422564 12.7772 0.837687 7.72074C2.09793 2.66429 7.21617 -0.423336 12.269 0.837687C17.3383 2.08325 20.4210 7.22005 19.1639 12.2796Z" stroke="currentColor" stroke-width="1.5"/>
<path d="M7.11027 13.2359L8.99188 5.68919" stroke="currentColor" stroke-width="1.5" stroke-linecap="square" stroke-linejoin="round"/>
<path d="M7.37472 5.28599C7.37472 5.28599 8.98929 5.68854 12.0202 6.44424C15.0512 7.19994 14.3747 10.7529 11.1467 9.94809C14.6843 10.8301 14.3240 15.0346 10.1386 13.9910C8.09316 13.4810 5.90231 12.9348 5.90231 12.9348" stroke="currentColor" stroke-width="1.5" stroke-linecap="square" stroke-linejoin="round"/>
<path d="M8.11828 9.19303L11.0831 9.93223" stroke="currentColor" stroke-width="1.5" stroke-linecap="square" stroke-linejoin="round"/>
<path d="M9.53093 5.82359L9.93414 4.20642" stroke="currentColor" stroke-width="1.5" stroke-linecap="square" stroke-linejoin="round"/>
<path d="M7.24612 14.9874L7.64933 13.3703" stroke="currentColor" stroke-width="1.5" stroke-linecap="square" stroke-linejoin="round"/>
<path d="M11.6871 6.36119L12.0903 4.74402" stroke="currentColor" stroke-width="1.5" stroke-linecap="square" stroke-linejoin="round"/>
<path d="M9.40233 15.5251L9.80554 13.9079" stroke="currentColor" stroke-width="1.5" stroke-linecap="square" stroke-linejoin="round"/>
</svg>