<svg width="24" height="24" viewBox="0 0 24 24" fill="none" xmlns="http://www.w3.org/2000/svg">
<path d="M6.66673 22.7676H17.3339C19.4133 22.7676 20.4479 21.7129 20.4479 19.6236V10.5032C20.4479 9.20722 20.3073 8.64493 19.5037 7.82122L13.9589 2.18636C13.196 1.40251 12.5729 1.23193 11.438 1.23193H6.66673C4.59759 1.23193 3.55273 2.2965 3.55273 4.38622V19.6236C3.55273 21.7228 4.59759 22.7676 6.66673 22.7676ZM6.74688 21.1506C5.71231 21.1506 5.16973 20.5978 5.16973 19.5936V4.41622C5.16973 3.42193 5.71231 2.84893 6.75716 2.84893H11.2169V8.68522C11.2169 9.95079 11.8597 10.5735 13.1052 10.5735H18.8309V19.5936C18.8309 20.5978 18.2982 21.1506 17.2537 21.1506H6.74688ZM13.286 9.05636C12.8943 9.05636 12.7332 8.89608 12.7332 8.49408V3.16051L18.5189 9.05679L13.286 9.05636Z" fill="currentColor"/>
<path d="M7.62531 18.9998C7.45343 18.9998 7.30635 18.9346 7.18406 18.8041C7.06176 18.6737 7.00051 18.5167 7.00031 18.3331V14.9998C7.00031 14.8165 7.06156 14.6596 7.18406 14.5291C7.30656 14.3987 7.45364 14.3333 7.62531 14.3331H7.93781V13.6665C7.93781 13.2053 8.0902 12.8123 8.39499 12.4875C8.69978 12.1626 9.06822 12 9.50031 11.9998C9.93239 11.9996 10.3009 12.1621 10.6059 12.4875C10.9109 12.8128 11.0632 13.2058 11.0628 13.6665V14.3331H11.3753C11.5472 14.3331 11.6944 14.3985 11.8169 14.5291C11.9394 14.6598 12.0005 14.8167 12.0003 14.9998V18.3331C12.0003 18.5165 11.9392 18.6735 11.8169 18.8041C11.6946 18.9348 11.5474 19 11.3753 18.9998H7.62531ZM7.62531 18.3331H11.3753V14.9998H7.62531V18.3331ZM9.50031 17.3331C9.67218 17.3331 9.81937 17.2679 9.94187 17.1375C10.0644 17.007 10.1255 16.85 10.1253 16.6665C10.1251 16.4829 10.064 16.326 9.94187 16.1958C9.81979 16.0656 9.6726 16.0002 9.50031 15.9998C9.32801 15.9993 9.18093 16.0647 9.05906 16.1958C8.93718 16.3269 8.87593 16.4838 8.87531 16.6665C8.87468 16.8491 8.93593 17.0061 9.05906 17.1375C9.18218 17.2688 9.32926 17.334 9.50031 17.3331ZM8.56281 14.3331H10.4378V13.6665C10.4378 13.3887 10.3467 13.1526 10.1644 12.9581C9.98208 12.7637 9.76072 12.6665 9.50031 12.6665C9.23989 12.6665 9.01853 12.7637 8.83624 12.9581C8.65395 13.1526 8.56281 13.3887 8.56281 13.6665V14.3331Z" fill="currentColor"/>
</svg>
