<svg width="18" height="18" viewBox="0 0 18 18" fill="none" xmlns="http://www.w3.org/2000/svg">
<path d="M9 16.5C11.071 16.5 12.9461 15.6605 14.3033 14.3033C15.6605 12.9461 16.5 11.071 16.5 9C16.5 6.92895 15.6605 5.05395 14.3033 3.6967C12.9461 2.33947 11.071 1.5 9 1.5C6.92895 1.5 5.05395 2.33947 3.6967 3.6967C2.33947 5.05395 1.5 6.92895 1.5 9C1.5 11.071 2.33947 12.9461 3.6967 14.3033C5.05395 15.6605 6.92895 16.5 9 16.5Z" stroke="#A1A1A1" stroke-width="0.75" stroke-linejoin="round"/>
<path d="M9 10.7343V9.23431C10.2426 9.23431 11.25 8.22695 11.25 6.98431C11.25 5.74168 10.2426 4.73431 9 4.73431C7.75736 4.73431 6.75 5.74168 6.75 6.98431" stroke="#A1A1A1" stroke-width="0.75" stroke-linecap="round" stroke-linejoin="round"/>
<path fill-rule="evenodd" clip-rule="evenodd" d="M9 14.1093C9.51776 14.1093 9.9375 13.6896 9.9375 13.1718C9.9375 12.6541 9.51776 12.2343 9 12.2343C8.48224 12.2343 8.0625 12.6541 8.0625 13.1718C8.0625 13.6896 8.48224 14.1093 9 14.1093Z" fill="#A1A1A1"/>
</svg>
