<svg width="18" height="18" viewBox="0 0 18 18" fill="none" xmlns="http://www.w3.org/2000/svg">
  <path
    d="M14.0625 2.25C14.6592 2.25 15.2314 2.48722 15.6533 2.90918C16.0753 3.33114 16.3125 3.90326 16.3125 4.5V11.8125C16.3125 12.4092 16.0753 12.9814 15.6533 13.4033C15.2314 13.8253 14.6592 14.0625 14.0625 14.0625H5.20312L2.60059 16.1436C2.51793 16.2095 2.41855 16.2508 2.31348 16.2627C2.20837 16.2746 2.1022 16.2567 2.00684 16.2109C1.91144 16.1651 1.83084 16.0934 1.77441 16.0039C1.718 15.9144 1.68767 15.8109 1.6875 15.7051V4.5C1.6875 3.90326 1.92472 3.33114 2.34668 2.90918C2.76864 2.48722 3.34076 2.25 3.9375 2.25H14.0625ZM3.9375 3.375C3.63913 3.375 3.35258 3.49312 3.1416 3.7041C2.93062 3.91508 2.8125 4.20163 2.8125 4.5V14.5352L4.80859 12.9375H14.0625C14.3609 12.9375 14.6474 12.8194 14.8584 12.6084C15.0694 12.3974 15.1875 12.1109 15.1875 11.8125V4.5C15.1875 4.20163 15.0694 3.91508 14.8584 3.7041C14.6474 3.49312 14.3609 3.375 14.0625 3.375H3.9375ZM5.625 6.97461C5.86369 6.97461 6.09294 7.0695 6.26172 7.23828C6.4305 7.40706 6.52539 7.63631 6.52539 7.875C6.52539 8.11369 6.4305 8.34294 6.26172 8.51172C6.09294 8.6805 5.86369 8.77539 5.625 8.77539C5.38631 8.77539 5.15706 8.6805 4.98828 8.51172C4.8195 8.34294 4.72461 8.11369 4.72461 7.875C4.72461 7.63631 4.8195 7.40706 4.98828 7.23828C5.15706 7.0695 5.38631 6.97461 5.625 6.97461ZM9 6.97461C9.23869 6.97461 9.46794 7.0695 9.63672 7.23828C9.8055 7.40706 9.90039 7.63631 9.90039 7.875C9.90039 8.11369 9.8055 8.34294 9.63672 8.51172C9.46794 8.6805 9.23869 8.77539 9 8.77539C8.76131 8.77539 8.53206 8.6805 8.36328 8.51172C8.1945 8.34294 8.09961 8.11369 8.09961 7.875C8.09961 7.63631 8.1945 7.40706 8.36328 7.23828C8.53206 7.0695 8.76131 6.97461 9 6.97461ZM12.375 6.97461C12.6137 6.97461 12.8429 7.0695 13.0117 7.23828C13.1805 7.40706 13.2754 7.63631 13.2754 7.875C13.2754 8.11369 13.1805 8.34294 13.0117 8.51172C12.8429 8.6805 12.6137 8.77539 12.375 8.77539C12.1363 8.77539 11.9071 8.6805 11.7383 8.51172C11.5695 8.34294 11.4746 8.11369 11.4746 7.875C11.4746 7.63631 11.5695 7.40706 11.7383 7.23828C11.9071 7.0695 12.1363 6.97461 12.375 6.97461Z"
    fill="none"
    stroke="currentColor"
    stroke-width="0.75"
    stroke-linecap="round"
    stroke-linejoin="round"
  />
</svg>
