<svg viewBox="0 0 20 20" fill="none" xmlns="http://www.w3.org/2000/svg">
<path d="M10 18.3333C12.3011 18.3333 14.3846 17.4006 15.8926 15.8926C17.4006 14.3846 18.3333 12.3011 18.3333 10C18.3333 7.69883 17.4006 5.61544 15.8926 4.10744C14.3846 2.59941 12.3011 1.66667 10 1.66667C7.69883 1.66667 5.61544 2.59941 4.10744 4.10744C2.59941 5.61544 1.66667 7.69883 1.66667 10C1.66667 12.3011 2.59941 14.3846 4.10744 15.8926C5.61544 17.4006 7.69883 18.3333 10 18.3333Z" stroke="currentColor" stroke-width="1.5" stroke-linejoin="round"/>
<path d="M10 11.9270V10.2603C11.3807 10.2603 12.5 9.14106 12.5 7.76034C12.5 6.37964 11.3807 5.26034 10 5.26034C8.61929 5.26034 7.5 6.37964 7.5 7.76034" stroke="currentColor" stroke-width="1.5" stroke-linecap="round" stroke-linejoin="round"/>
<path fill-rule="evenodd" clip-rule="evenodd" d="M10 15.6770C10.5753 15.6770 11.0417 15.2107 11.0417 14.6354C11.0417 14.0601 10.5753 13.5937 10 13.5937C9.42471 13.5937 8.95833 14.0601 8.95833 14.6354C8.95833 15.2107 9.42471 15.6770 10 15.6770Z" fill="currentColor"/>
</svg>