<svg viewBox="0 0 20 20" fill="none" xmlns="http://www.w3.org/2000/svg">
<path d="M10 18.3333C12.3011 18.3333 14.3846 17.4006 15.8926 15.8926C17.4006 14.3846 18.3333 12.3011 18.3333 10C18.3333 7.69883 17.4006 5.61544 15.8926 4.10744C14.3846 2.59941 12.3011 1.66667 10 1.66667C7.69883 1.66667 5.61544 2.59941 4.10744 4.10744C2.59941 5.61544 1.66667 7.69883 1.66667 10C1.66667 12.3011 2.59941 14.3846 4.10744 15.8926C5.61544 17.4006 7.69883 18.3333 10 18.3333Z" stroke="currentColor" stroke-width="1.5" stroke-linejoin="round"/>
<path fill-rule="evenodd" clip-rule="evenodd" d="M10 4.58333C10.5753 4.58333 11.0417 5.04971 11.0417 5.625C11.0417 6.20029 10.5753 6.66667 10 6.66667C9.42471 6.66667 8.95833 6.20029 8.95833 5.625C8.95833 5.04971 9.42471 4.58333 10 4.58333Z" fill="currentColor"/>
<path d="M10.2083 14.1667V8.33333H9.79167H9.375" stroke="currentColor" stroke-width="1.5" stroke-linecap="round" stroke-linejoin="round"/>
<path d="M8.75 14.1667H11.6667" stroke="currentColor" stroke-width="1.5" stroke-linecap="round" stroke-linejoin="round"/>
</svg>