<svg width="18" height="18" viewBox="0 0 18 18" fill="none" xmlns="http://www.w3.org/2000/svg">
<path d="M7.3125 10.125C7.46168 10.125 7.60447 10.1845 7.70996 10.29C7.81545 10.3955 7.875 10.5383 7.875 10.6875V15.1875C7.875 15.3367 7.81545 15.4795 7.70996 15.585C7.60447 15.6904 7.46168 15.75 7.3125 15.75H2.8125C2.66332 15.75 2.52053 15.6904 2.41504 15.585C2.30955 15.4795 2.25 15.3367 2.25 15.1875V10.6875C2.25 10.5383 2.30955 10.3955 2.41504 10.29C2.52053 10.1845 2.66332 10.125 2.8125 10.125H7.3125ZM15.1865 10.125C15.3357 10.125 15.4785 10.1846 15.584 10.29C15.6894 10.3955 15.749 10.5384 15.749 10.6875V15.1875C15.749 15.3366 15.6894 15.4795 15.584 15.585C15.4785 15.6904 15.3357 15.75 15.1865 15.75H10.6875C10.5383 15.75 10.3955 15.6904 10.29 15.585C10.1846 15.4795 10.125 15.3367 10.125 15.1875V10.6875C10.125 10.5383 10.1846 10.3955 10.29 10.29C10.3955 10.1846 10.5383 10.125 10.6875 10.125H15.1865ZM7.3125 2.25098C7.46165 2.25098 7.60448 2.31057 7.70996 2.41602C7.81542 2.52147 7.87496 2.66435 7.875 2.81348V7.3125C7.875 7.46168 7.81545 7.60447 7.70996 7.70996C7.60447 7.81545 7.46168 7.875 7.3125 7.875H2.8125C2.66332 7.875 2.52053 7.81545 2.41504 7.70996C2.30955 7.60447 2.25 7.46168 2.25 7.3125V2.81348C2.25004 2.66435 2.30958 2.52147 2.41504 2.41602C2.52052 2.31057 2.66335 2.25098 2.8125 2.25098H7.3125ZM15.1865 2.25098C15.3357 2.25102 15.4785 2.31056 15.584 2.41602C15.6894 2.52147 15.749 2.66435 15.749 2.81348V7.3125C15.749 7.46165 15.6894 7.60448 15.584 7.70996C15.4785 7.81541 15.3357 7.87496 15.1865 7.875H10.6875C10.5383 7.875 10.3955 7.81545 10.29 7.70996C10.1845 7.60447 10.125 7.46168 10.125 7.3125V2.81348C10.125 2.66435 10.1846 2.52147 10.29 2.41602C10.3955 2.31057 10.5384 2.25098 10.6875 2.25098H15.1865Z" fill="#A1A1A1"/>
</svg>
