<svg viewBox="0 0 20 21.1111" fill="none" xmlns="http://www.w3.org/2000/svg">
<path d="M15.8333 2.22222H4.16667C3.70643 2.22222 3.33333 2.59532 3.33333 3.05556V18.0556C3.33333 18.5158 3.70643 18.8889 4.16667 18.8889H15.8333C16.2936 18.8889 16.6667 18.5158 16.6667 18.0556V3.05556C16.6667 2.59532 16.2936 2.22222 15.8333 2.22222Z" stroke="currentColor" stroke-width="1.5" stroke-linejoin="round"/>
<path d="M8.75 6.15750H13.75" stroke="currentColor" stroke-width="1.5" stroke-linecap="round" stroke-linejoin="round"/>
<path d="M8.75 10.5556H13.75" stroke="currentColor" stroke-width="1.5" stroke-linecap="round" stroke-linejoin="round"/>
<path d="M8.75 14.9537H13.75" stroke="currentColor" stroke-width="1.5" stroke-linecap="round" stroke-linejoin="round"/>
<path fill-rule="evenodd" clip-rule="evenodd" d="M6.25 7.03704C6.71024 7.03704 7.08333 6.63767 7.08333 6.15741C7.08333 5.67715 6.71024 5.27778 6.25 5.27778C5.78976 5.27778 5.41667 5.67715 5.41667 6.15741C5.41667 6.63767 5.78976 7.03704 6.25 7.03704Z" fill="currentColor"/>
<path fill-rule="evenodd" clip-rule="evenodd" d="M6.25 11.4351C6.71024 11.4351 7.08333 11.0358 7.08333 10.5555C7.08333 10.0753 6.71024 9.67590 6.25 9.67590C5.78976 9.67590 5.41667 10.0753 5.41667 10.5555C5.41667 11.0358 5.78976 11.4351 6.25 11.4351Z" fill="currentColor"/>
<path fill-rule="evenodd" clip-rule="evenodd" d="M6.25 15.8334C6.71024 15.8334 7.08333 15.4341 7.08333 14.9538C7.08333 14.4736 6.71024 14.0742 6.25 14.0742C5.78976 14.0742 5.41667 14.4736 5.41667 14.9538C5.41667 15.4341 5.78976 15.8334 6.25 15.8334Z" fill="currentColor"/>
</svg>