<svg width="18" height="18" viewBox="0 0 18 18" fill="none" xmlns="http://www.w3.org/2000/svg">
<path d="M17.2475 11.0516C16.1132 15.6024 11.5041 18.3813 6.94491 17.2464C2.3941 16.1087 -0.380308 11.4995 0.753918 6.94866C1.88815 2.39787 6.49455 -0.381002 11.0426 0.753914C15.6045 1.87492 18.3789 6.49804 17.2475 11.0516Z" stroke="#A1A1A1"/>
<path d="M6.39924 11.9123L8.09269 5.12027" stroke="#A1A1A1" stroke-linecap="square" stroke-linejoin="round"/>
<path d="M6.63725 4.75739C6.63725 4.75739 8.09036 5.11969 10.8182 5.79982C13.5461 6.47994 12.9372 9.67763 10.032 8.95328C13.2159 9.74713 12.8916 13.5311 9.12476 12.5919C7.28384 12.1329 5.31208 11.6413 5.31208 11.6413" stroke="#A1A1A1" stroke-linecap="square" stroke-linejoin="round"/>
<path d="M7.30645 8.27373L9.97476 8.93901" stroke="#A1A1A1" stroke-linecap="square" stroke-linejoin="round"/>
<path d="M8.57784 5.24123L8.94072 3.78578" stroke="#A1A1A1" stroke-linecap="square" stroke-linejoin="round"/>
<path d="M6.52151 13.4887L6.88439 12.0333" stroke="#A1A1A1" stroke-linecap="square" stroke-linejoin="round"/>
<path d="M10.5184 5.72507L10.8813 4.26962" stroke="#A1A1A1" stroke-linecap="square" stroke-linejoin="round"/>
<path d="M8.4621 13.9726L8.82498 12.5171" stroke="#A1A1A1" stroke-linecap="square" stroke-linejoin="round"/>
</svg>
