<svg width="24" height="24" viewBox="0 0 24 24" fill="none" xmlns="http://www.w3.org/2000/svg">
<path d="M6.66673 22.7676H17.3339C19.4133 22.7676 20.4479 21.7129 20.4479 19.6236V10.5032C20.4479 9.20722 20.3073 8.64493 19.5037 7.82122L13.9589 2.18636C13.196 1.40251 12.5729 1.23193 11.438 1.23193H6.66673C4.59759 1.23193 3.55273 2.2965 3.55273 4.38622V19.6236C3.55273 21.7228 4.59759 22.7676 6.66673 22.7676ZM6.74688 21.1506C5.71231 21.1506 5.16973 20.5978 5.16973 19.5936V4.41622C5.16973 3.42193 5.71231 2.84893 6.75716 2.84893H11.2169V8.68522C11.2169 9.95079 11.8597 10.5735 13.1052 10.5735H18.8309V19.5936C18.8309 20.5978 18.2982 21.1506 17.2537 21.1506H6.74688ZM13.286 9.05636C12.8943 9.05636 12.7332 8.89608 12.7332 8.49408V3.16051L18.5189 9.05679L13.286 9.05636Z" fill="currentColor"/>
<path fill-rule="evenodd" clip-rule="evenodd" d="M11.8841 13.5008C12.7881 13.5061 13.5002 14.3288 13.5003 15.2498C13.5003 15.8187 13.134 16.2614 12.7728 16.533C12.4072 16.8077 11.9293 16.9998 11.5003 16.9998H11.1234L12.6224 18.6648C12.8071 18.8701 12.7905 19.1871 12.5853 19.3719C12.38 19.5566 12.063 19.54 11.8782 19.3347L10.0003 17.2478L8.12238 19.3347C7.93764 19.54 7.62058 19.5566 7.41534 19.3719C7.21014 19.1871 7.19352 18.8701 7.37824 18.6648L8.87726 16.9998H8.50031C8.07135 16.9998 7.59339 16.8077 7.22784 16.533C6.86664 16.2614 6.50031 15.8187 6.50031 15.2498C6.50039 14.3291 7.21204 13.5067 8.11554 13.5008C8.11781 13.5007 8.12011 13.5008 8.12238 13.5008L8.12531 13.4998C8.76325 13.4911 9.28514 13.8648 9.66242 14.3738C9.7861 14.5408 9.89834 14.7289 10.0003 14.9334C10.1023 14.7289 10.2145 14.5408 10.3382 14.3738C10.7155 13.8648 11.2374 13.4921 11.8753 13.5008H11.8773C11.8799 13.5008 11.8825 13.4997 11.8851 13.4998L11.8841 13.5008ZM8.12531 14.4998C7.85002 14.4998 7.50039 14.794 7.50031 15.2498C7.50031 15.3706 7.58777 15.5533 7.82843 15.7342C8.06494 15.9119 8.33751 15.9998 8.50031 15.9998H9.35285C9.21574 15.5687 9.04619 15.2213 8.85968 14.9695C8.59223 14.6085 8.33847 14.4958 8.13507 14.4998H8.12531ZM11.8655 14.4998C11.6621 14.4958 11.4084 14.6085 11.1409 14.9695C10.9544 15.2213 10.7849 15.5687 10.6478 15.9998H11.5003C11.6631 15.9998 11.9357 15.9119 12.1722 15.7342C12.4128 15.5533 12.5003 15.3706 12.5003 15.2498C12.5002 14.794 12.1506 14.4998 11.8753 14.4998H11.8655Z" fill="currentColor"/>
</svg>
