<svg width="18" height="19" viewBox="0 0 18 19" fill="none" xmlns="http://www.w3.org/2000/svg">
<path d="M14.25 2H3.75C3.33579 2 3 2.33579 3 2.75V16.25C3 16.6642 3.33579 17 3.75 17H14.25C14.6642 17 15 16.6642 15 16.25V2.75C15 2.33579 14.6642 2 14.25 2Z" stroke="currentColor" stroke-width="0.75" stroke-linejoin="round"/>
<path d="M7.875 5.54175H12.375" stroke="currentColor" stroke-width="0.75" stroke-linecap="round" stroke-linejoin="round"/>
<path d="M7.875 9.5H12.375" stroke="currentColor" stroke-width="0.75" stroke-linecap="round" stroke-linejoin="round"/>
<path d="M7.875 13.4583H12.375" stroke="currentColor" stroke-width="0.75" stroke-linecap="round" stroke-linejoin="round"/>
<path fill-rule="evenodd" clip-rule="evenodd" d="M5.625 6.33333C6.03922 6.33333 6.375 5.9789 6.375 5.54167C6.375 5.10443 6.03922 4.75 5.625 4.75C5.21078 4.75 4.875 5.10443 4.875 5.54167C4.875 5.9789 5.21078 6.33333 5.625 6.33333Z" fill="white"/>
<path fill-rule="evenodd" clip-rule="evenodd" d="M5.625 10.2916C6.03922 10.2916 6.375 9.93716 6.375 9.49992C6.375 9.06268 6.03922 8.70825 5.625 8.70825C5.21078 8.70825 4.875 9.06268 4.875 9.49992C4.875 9.93716 5.21078 10.2916 5.625 10.2916Z" fill="white"/>
<path fill-rule="evenodd" clip-rule="evenodd" d="M5.625 14.2501C6.03922 14.2501 6.375 13.8957 6.375 13.4584C6.375 13.0212 6.03922 12.6667 5.625 12.6667C5.21078 12.6667 4.875 13.0212 4.875 13.4584C4.875 13.8957 5.21078 14.2501 5.625 14.2501Z" fill="white"/>
</svg>
