<svg width="24" height="24" viewBox="0 0 24 24" fill="none" xmlns="http://www.w3.org/2000/svg">
<path d="M6.66673 22.7676H17.3339C19.4133 22.7676 20.4479 21.7129 20.4479 19.6236V10.5032C20.4479 9.20722 20.3073 8.64493 19.5037 7.82122L13.9589 2.18636C13.196 1.40251 12.5729 1.23193 11.438 1.23193H6.66673C4.59759 1.23193 3.55273 2.2965 3.55273 4.38622V19.6236C3.55273 21.7228 4.59759 22.7676 6.66673 22.7676ZM6.74688 21.1506C5.71231 21.1506 5.16973 20.5978 5.16973 19.5936V4.41622C5.16973 3.42193 5.71231 2.84893 6.75716 2.84893H11.2169V8.68522C11.2169 9.95079 11.8597 10.5735 13.1052 10.5735H18.8309V19.5936C18.8309 20.5978 18.2982 21.1506 17.2537 21.1506H6.74688ZM13.286 9.05636C12.8943 9.05636 12.7332 8.89608 12.7332 8.49408V3.16051L18.5189 9.05679L13.286 9.05636Z" fill="currentColor"/>
<path d="M7.80031 17.4442H7.00031V18.222H8.20031V18.9998H9.00031V18.222H9.80031V18.9998H10.6003V18.2022C11.3875 18.1053 12.0003 17.4575 12.0003 16.6665C12.0003 16.1531 11.7403 15.7005 11.3443 15.417C11.6364 15.1277 11.8002 14.7385 11.8003 14.3331C11.8003 13.6106 11.2887 13.0066 10.6003 12.8328V11.9998H9.80031V12.7776H9.00031V11.9998H8.20031V12.7776H7.00031V13.5553H7.80031V17.4442ZM10.4003 17.4442H8.60031V15.8887H10.4003C10.8415 15.8887 11.2003 16.2375 11.2003 16.6665C11.2003 17.0954 10.8415 17.4442 10.4003 17.4442ZM8.60031 13.5553H10.2003C10.6415 13.5553 11.0003 13.9042 11.0003 14.3331C11.0003 14.7621 10.6415 15.1109 10.2003 15.1109H8.60031V13.5553Z" fill="currentColor"/>
</svg>
