<svg width="16" height="16" viewBox="0 0 16 16" fill="none" xmlns="http://www.w3.org/2000/svg">
<path d="M2.66666 14.6666V2.66659C2.66666 2.56309 2.69075 2.46101 2.73704 2.36844C2.78332 2.27587 2.85053 2.19535 2.93332 2.13325C3.62571 1.61396 4.46784 1.33325 5.33332 1.33325C7.33332 1.33325 8.66666 2.66659 10.222 2.66659C11.1109 2.66659 11.7924 2.48881 12.2667 2.13325C12.3657 2.05897 12.4835 2.01373 12.6068 2.00261C12.7301 1.99149 12.8541 2.01493 12.9648 2.0703C13.0755 2.12567 13.1687 2.21078 13.2338 2.3161C13.2988 2.42142 13.3333 2.54278 13.3333 2.66659V9.33325C13.3333 9.43675 13.3092 9.53882 13.2629 9.63139C13.2167 9.72396 13.1495 9.80449 13.0667 9.86658C12.3743 10.3859 11.5321 10.6666 10.6667 10.6666C8.66666 10.6666 7.33332 9.33325 5.33332 9.33325C4.3494 9.33328 3.40001 9.69595 2.66666 10.3519" stroke="#FAFAFA" stroke-width="1.33333" stroke-linecap="round" stroke-linejoin="round"/>
</svg>
