<svg width="24" height="24" viewBox="0 0 24 24" fill="none" xmlns="http://www.w3.org/2000/svg">
<path d="M11.8213 15.4258C12.313 15.5525 13.8945 15.7939 13.6592 16.7383V16.7432C13.4357 17.6534 11.9135 17.1583 11.4219 17.0391L11.8213 15.4258Z" fill="currentColor"/>
<path d="M12.3633 13.2275C12.7758 13.3294 14.0962 13.5243 13.8818 14.3838C13.68 15.2096 12.4111 14.79 12.0029 14.6885L12.3633 13.2275Z" fill="currentColor"/>
<path fill-rule="evenodd" clip-rule="evenodd" d="M14.7871 9.74707C14.9047 9.74595 15.02 9.77759 15.1133 9.83691C17.4299 11.2998 19.9999 13.8882 20 16.1387C20 19.312 17.8643 21 12 21C6.13575 21 4 19.312 4 16.1387C4.00009 13.8882 6.57912 11.3373 8.88672 9.83691C8.98002 9.77759 9.0953 9.74595 9.21289 9.74707H14.7871ZM11.8301 12.2021L11.3672 12.0928V12.0879L10.3623 11.835L10.1689 12.6172C10.1689 12.6172 10.7019 12.744 10.6992 12.749C10.993 12.8256 11.0435 13.0204 11.0352 13.1729L10.6992 14.5449L10.7744 14.5703L10.6943 14.5537L10.2197 16.4717C10.1862 16.5608 10.0935 16.6958 9.8877 16.6406C9.8928 16.6528 9.36133 16.5137 9.36133 16.5137L9 17.3486L9.94629 17.5859L10.4639 17.7207L10.1602 18.9365L10.8877 19.1182L11.1826 17.916L11.7666 18.0684L11.4688 19.2666L12.1953 19.4492L12.4941 18.2334C13.7346 18.4704 14.668 18.3778 15.0596 17.2471C15.3746 16.3365 15.0422 15.8151 14.3906 15.4678C14.866 15.3622 15.2237 15.0442 15.3164 14.3965H15.3203C15.4508 13.5071 14.7822 13.0329 13.8613 12.7109L14.1592 11.5127L13.4326 11.3301L13.1416 12.499L12.5615 12.3594L12.8555 11.1816L12.1289 11L11.8301 12.2021Z" fill="currentColor"/>
<path d="M14.7148 7.49707C14.9548 7.49712 15.1848 7.57617 15.3545 7.7168C15.5241 7.85747 15.6201 8.04816 15.6201 8.24707C15.62 8.44595 15.5241 8.63671 15.3545 8.77734C15.1848 8.91788 14.9547 8.99702 14.7148 8.99707H9.28516C9.04532 8.99702 8.81515 8.91788 8.64551 8.77734C8.47586 8.63671 8.37996 8.44595 8.37988 8.24707C8.37988 8.04816 8.47587 7.85747 8.64551 7.7168C8.81517 7.57617 9.04524 7.49712 9.28516 7.49707H14.7148Z" fill="currentColor"/>
<path d="M12 3C12.0887 3 12.176 3.02195 12.25 3.0625C12.3238 3.10304 12.3813 3.16101 12.416 3.22852L12.8145 4.06055C12.8394 4.10565 12.8853 4.14087 12.9414 4.1582C12.9694 4.16938 13.0002 4.17573 13.0312 4.17578C13.0626 4.17578 13.0948 4.1695 13.123 4.1582L14.8057 3.55859C14.8923 3.53903 14.9842 3.54066 15.0693 3.56445C15.1548 3.58852 15.2306 3.63376 15.2852 3.69336C15.3511 3.74879 15.3938 3.82114 15.4053 3.89844C15.4166 3.97565 15.3965 4.05418 15.3486 4.12109C14.8294 4.8122 14.4607 5.57381 14.2617 6.37109C14.2465 6.46191 14.1934 6.54587 14.1104 6.60645C14.0275 6.66685 13.9209 6.70013 13.8105 6.70117H10.1631C10.0521 6.70176 9.94369 6.66912 9.86035 6.6084C9.77698 6.54753 9.72329 6.46253 9.70996 6.37109C9.51608 5.5608 9.14921 4.78556 8.625 4.08301C8.57707 4.01596 8.55691 3.9377 8.56836 3.86035C8.57987 3.78307 8.62147 3.71067 8.6875 3.65527C8.74954 3.59788 8.83231 3.5575 8.92285 3.54004C9.01325 3.52275 9.1083 3.52981 9.19434 3.55859L10.877 4.1582C10.9052 4.1695 10.9374 4.17578 10.9688 4.17578C10.9998 4.17573 11.0306 4.16938 11.0586 4.1582C11.1147 4.14087 11.1606 4.10565 11.1855 4.06055L11.584 3.22852C11.6187 3.16101 11.6762 3.10304 11.75 3.0625C11.824 3.02195 11.9113 3 12 3Z" fill="currentColor"/>
</svg>
