<svg width="24" height="24" viewBox="0 0 24 24" fill="none" xmlns="http://www.w3.org/2000/svg">
<path d="M13.2002 14.1763H11.3384L11.1992 15.4009H11.2241C11.3098 15.3183 11.4241 15.2499 11.5654 15.1943C11.7082 15.1388 11.8612 15.1108 12.0239 15.1108C12.2908 15.1109 12.5289 15.1745 12.7373 15.3013C12.947 15.4281 13.1111 15.6019 13.231 15.8213C13.3523 16.0394 13.4126 16.2906 13.4111 16.5742C13.4125 16.8577 13.3491 17.1108 13.2192 17.333C13.0907 17.5554 12.9116 17.7306 12.6831 17.8589C12.456 17.9858 12.1951 18.0493 11.9009 18.0493C11.6326 18.0493 11.3913 17.9981 11.1772 17.8955C10.9646 17.7915 10.7946 17.6487 10.6675 17.4678C10.5404 17.2867 10.4724 17.0791 10.4639 16.8467H11.1069C11.1226 17.0349 11.206 17.1898 11.3574 17.311C11.5087 17.4321 11.6897 17.4926 11.9009 17.4927C12.0694 17.4927 12.2192 17.4539 12.3491 17.377C12.4803 17.2986 12.584 17.1914 12.6582 17.0547C12.7338 16.9179 12.771 16.7612 12.771 16.5859C12.7709 16.408 12.7322 16.2494 12.6553 16.1099C12.5782 15.9701 12.4716 15.8601 12.3359 15.7803C12.2017 15.7005 12.0473 15.6601 11.873 15.6587C11.7405 15.6587 11.6071 15.6806 11.4731 15.7261C11.3389 15.7717 11.2293 15.8321 11.1465 15.9062L10.5415 15.8169L10.7876 13.6094H13.2002V14.1763Z" fill="currentColor"/>
<path fill-rule="evenodd" clip-rule="evenodd" d="M15.7813 13.5493C16.0426 13.5493 16.2757 13.6005 16.4785 13.7031C16.6811 13.8058 16.8451 13.9485 16.9707 14.1294C17.0977 14.3104 17.1782 14.5167 17.2124 14.7476H16.5591C16.5148 14.5651 16.4268 14.4148 16.2954 14.2993C16.1641 14.1841 15.9924 14.1265 15.7813 14.1265C15.4602 14.1265 15.2097 14.2664 15.0298 14.5454C14.8513 14.8248 14.7617 15.2139 14.7603 15.7114H14.7925C14.8681 15.5876 14.961 15.4819 15.0708 15.395C15.1821 15.3067 15.3059 15.2384 15.4429 15.1914C15.5812 15.143 15.7268 15.1197 15.8794 15.1196C16.1335 15.1196 16.3637 15.1817 16.5693 15.3057C16.7763 15.4282 16.9417 15.5974 17.0645 15.814C17.1872 16.0306 17.249 16.2788 17.249 16.5581C17.249 16.8376 17.1857 17.0917 17.0586 17.3184C16.9329 17.5449 16.7553 17.7249 16.5269 17.8574C16.2984 17.9884 16.031 18.0522 15.7256 18.0493C15.53 18.0464 15.3368 18.0108 15.147 17.9424C14.9586 17.8739 14.787 17.7592 14.6328 17.5996C14.4788 17.44 14.3549 17.2257 14.2622 16.9565C14.1708 16.6872 14.126 16.3506 14.126 15.9473C14.126 15.5653 14.1632 15.2257 14.2388 14.9292C14.3159 14.6326 14.427 14.3816 14.5713 14.1777C14.7155 13.9726 14.8901 13.8173 15.0942 13.7104C15.2984 13.6036 15.5271 13.5494 15.7813 13.5493ZM15.7388 15.6558C15.6118 15.6558 15.4942 15.6806 15.3857 15.729C15.2788 15.7774 15.1844 15.8443 15.103 15.9297C15.0216 16.0152 14.9568 16.1144 14.9097 16.2256C14.8641 16.3352 14.8408 16.4518 14.8408 16.5742C14.8409 16.7378 14.8796 16.8889 14.9551 17.0283C15.0322 17.1681 15.1372 17.2811 15.27 17.3667C15.4042 17.4507 15.5557 17.4927 15.7241 17.4927C15.8923 17.4926 16.0427 17.452 16.1753 17.3696C16.308 17.287 16.4131 17.1752 16.4902 17.0356C16.5674 16.8959 16.606 16.7394 16.606 16.5669C16.6059 16.3987 16.5688 16.2452 16.4932 16.1069C16.4189 15.9687 16.3155 15.8586 16.1841 15.7773C16.0542 15.6962 15.9057 15.6558 15.7388 15.6558Z" fill="currentColor"/>
<path d="M8.16992 13.5493C8.4453 13.5494 8.68817 13.6037 8.89795 13.7134C9.10933 13.8217 9.27453 13.9705 9.39307 14.1587C9.51151 14.3453 9.57024 14.5564 9.57031 14.7915C9.57031 14.954 9.53944 15.1136 9.47803 15.269C9.41803 15.4244 9.31297 15.5981 9.16309 15.7891C9.01316 15.9786 8.80443 16.2083 8.5376 16.479L7.66602 17.3901V17.4224H9.64063V17.9893H6.75342V17.5103L8.23731 15.9751C8.39584 15.8083 8.52705 15.6611 8.62988 15.5356C8.73381 15.4091 8.81142 15.2891 8.86279 15.1753C8.91421 15.0612 8.94043 14.9389 8.94043 14.8105C8.94033 14.6654 8.90635 14.5394 8.83789 14.4341C8.76936 14.3274 8.67503 14.2464 8.55664 14.1895C8.43819 14.1311 8.30513 14.1016 8.15674 14.1016C7.99972 14.1016 7.86219 14.1327 7.74512 14.1968C7.62801 14.2609 7.53843 14.3523 7.47559 14.4692C7.4128 14.5861 7.3804 14.7227 7.38037 14.8794H6.74903C6.74906 14.6129 6.81087 14.3802 6.9336 14.1807C7.05642 13.981 7.22474 13.8261 7.43897 13.7163C7.65319 13.6051 7.89715 13.5493 8.16992 13.5493Z" fill="currentColor"/>
<path fill-rule="evenodd" clip-rule="evenodd" d="M11.999 1.3999C13.6942 1.3999 15.3036 2.12959 16.4785 3.40234C17.6512 4.67272 18.2993 6.3819 18.2993 8.1499V9.26904C18.4351 9.28204 18.5664 9.29763 18.6919 9.31592C19.5405 9.43963 20.2837 9.70975 20.8701 10.3457C21.4479 10.9709 21.6832 11.7455 21.793 12.6294C21.9003 13.4942 21.8984 14.5941 21.8984 15.9487C21.8984 17.3038 21.9003 18.4046 21.793 19.2695C21.6833 20.1528 21.447 20.9268 20.8701 21.5518C20.2837 22.1878 19.5406 22.4593 18.6919 22.583C17.8768 22.7018 16.8444 22.6987 15.5996 22.6987H8.39844C7.15361 22.6987 6.12122 22.7018 5.30615 22.583C4.45747 22.4593 3.71434 22.1878 3.12793 21.5518C2.55161 20.9269 2.31468 20.1524 2.20508 19.2695C2.09771 18.4046 2.09961 17.3038 2.09961 15.9487C2.09961 14.5941 2.09776 13.4942 2.20508 12.6294C2.31476 11.7459 2.55066 10.9708 3.12793 10.3457C3.71432 9.70975 4.45751 9.43963 5.30615 9.31592C5.4317 9.29763 5.56292 9.28204 5.69873 9.26904V8.1499C5.69873 6.38191 6.34688 4.67272 7.51953 3.40234C8.69442 2.12959 10.3039 1.3999 11.999 1.3999ZM8.39844 10.999C7.0991 10.999 6.22213 11.0018 5.5669 11.0972C4.94561 11.1877 4.65581 11.3453 4.45215 11.5659L4.45069 11.5674C4.2375 11.7982 4.07874 12.1417 3.99072 12.8506C3.90034 13.5787 3.89844 14.5469 3.89844 15.9487C3.89844 17.3509 3.90033 18.3202 3.99072 19.0483C4.07876 19.7572 4.23745 20.1007 4.45069 20.3315C4.65436 20.5524 4.94519 20.7112 5.5669 20.8018C6.22213 20.8971 7.09913 20.8999 8.39844 20.8999H15.5996C16.8989 20.8999 17.7759 20.8971 18.4312 20.8018C19.0529 20.7112 19.3422 20.5524 19.5459 20.3315C19.7591 20.1007 19.9193 19.7572 20.0073 19.0483C20.0977 18.3202 20.0996 17.3509 20.0996 15.9487C20.0996 14.5469 20.0977 13.5787 20.0073 12.8506C19.9193 12.1417 19.7606 11.7982 19.5474 11.5674L19.5459 11.5659C19.3422 11.3453 19.0524 11.1877 18.4312 11.0972C17.7759 11.0018 16.899 10.999 15.5996 10.999H8.39844ZM11.999 3.19873C10.8301 3.19873 9.69273 3.7015 8.84229 4.62256C7.98955 5.54635 7.49903 6.81487 7.49903 8.1499V9.2002C7.78529 9.19851 8.08513 9.19873 8.39844 9.19873H15.5996C15.9129 9.19873 16.2128 9.19851 16.499 9.2002V8.1499C16.499 6.81487 16.0085 5.54635 15.1558 4.62256C14.3053 3.70151 13.168 3.19873 11.999 3.19873Z" fill="currentColor"/>
</svg>
