<svg width="18" height="18" viewBox="0 0 18 18" fill="none" xmlns="http://www.w3.org/2000/svg">
<path d="M12.5681 2.46934C13.0952 2.2294 13.6199 2.18856 14.1414 2.34629C14.6627 2.50409 15.079 2.82894 15.3894 3.3209C15.6998 3.81307 15.8119 4.32914 15.7244 4.86777C15.6366 5.40662 15.3663 5.86072 14.9148 6.23008C14.4633 6.59945 13.9624 6.77226 13.4119 6.74863C12.8615 6.72492 12.375 6.51992 11.9529 6.1334L6.64429 9.43906C6.73796 9.74377 6.76736 10.0548 6.73218 10.3707L11.6541 12.2164C11.9937 11.7479 12.4297 11.448 12.9626 11.3189C13.4958 11.19 14.0214 11.2604 14.5369 11.5299C15.0522 11.7994 15.4068 12.1896 15.6003 12.6988C15.7938 13.2084 15.791 13.7367 15.5916 14.2818C15.3921 14.8269 15.0491 15.2283 14.5632 15.4859C14.0774 15.7435 13.5527 15.805 12.99 15.6705C12.4274 15.5359 11.9845 15.2457 11.6628 14.8004C11.3413 14.355 11.2093 13.839 11.2673 13.2535L6.34546 11.4078C6.06421 11.8064 5.70669 12.0849 5.27319 12.2428C4.83984 12.4005 4.39143 12.418 3.92847 12.2955C3.46561 12.1729 3.08428 11.9355 2.78589 11.5836C2.48764 11.2316 2.31462 10.818 2.26733 10.3443C2.22018 9.87063 2.30809 9.43077 2.53101 9.02598C2.75409 8.62114 3.08244 8.31626 3.51538 8.11192C3.94841 7.90759 4.39113 7.8373 4.84253 7.90098C5.29378 7.96475 5.6954 8.16122 6.04663 8.48985L11.3552 5.18516C11.1911 4.62281 11.2204 4.08845 11.4431 3.58457C11.6658 3.08094 12.0412 2.70926 12.5681 2.46934Z" fill="#303133"/>
</svg>
