<svg width="20" height="20" viewBox="0 0 20 20" fill="none" xmlns="http://www.w3.org/2000/svg">
<path d="M16.6666 10.8333C16.6666 15 13.7499 17.0833 10.2833 18.2917C10.1017 18.3532 9.90453 18.3502 9.72492 18.2833C6.24992 17.0833 3.33325 15 3.33325 10.8333V5C3.33325 4.77898 3.42105 4.56702 3.57733 4.41074C3.73361 4.25446 3.94557 4.16667 4.16659 4.16667C5.83325 4.16667 7.91658 3.16666 9.36658 1.9C9.54313 1.74916 9.76771 1.66629 9.99992 1.66629C10.2321 1.66629 10.4567 1.74916 10.6333 1.9C12.0916 3.175 14.1666 4.16667 15.8333 4.16667C16.0543 4.16667 16.2662 4.25446 16.4225 4.41074C16.5788 4.56702 16.6666 4.77898 16.6666 5V10.8333Z" stroke="#FAFAFA" stroke-width="1.66667" stroke-linecap="round" stroke-linejoin="round"/>
</svg>
