<svg width="24" height="30" viewBox="0 0 24 30" fill="none" xmlns="http://www.w3.org/2000/svg">
<path d="M22.6666 16.0006C22.6666 22.6673 17.9999 26.0006 12.4533 27.9339C12.1628 28.0324 11.8473 28.0276 11.5599 27.9206C5.99992 26.0006 1.33325 22.6673 1.33325 16.0006V6.66726C1.33325 6.31364 1.47373 5.9745 1.72378 5.72445C1.97383 5.4744 2.31296 5.33393 2.66659 5.33393C5.33325 5.33393 8.66659 3.73393 10.9866 1.70726C11.2691 1.46593 11.6284 1.33333 11.9999 1.33333C12.3714 1.33333 12.7308 1.46593 13.0133 1.70726C15.3466 3.74726 18.6666 5.33393 21.3333 5.33393C21.6869 5.33393 22.026 5.4744 22.2761 5.72445C22.5261 5.9745 22.6666 6.31364 22.6666 6.66726V16.0006Z" stroke="#FF8904" stroke-width="2.66667" stroke-linecap="round" stroke-linejoin="round"/>
</svg>
