<svg width="20" height="20" viewBox="0 0 20 20" fill="none" xmlns="http://www.w3.org/2000/svg">
<path d="M3.72494 17.5H16.2749C17.5583 17.5 18.3583 16.1083 17.7166 15L11.4416 4.15834C10.7999 3.05 9.19994 3.05 8.55827 4.15834L2.28327 15C1.6416 16.1083 2.4416 17.5 3.72494 17.5ZM9.99994 11.6667C9.5416 11.6667 9.1666 11.2917 9.1666 10.8333V9.16667C9.1666 8.70834 9.5416 8.33334 9.99994 8.33334C10.4583 8.33334 10.8333 8.70834 10.8333 9.16667V10.8333C10.8333 11.2917 10.4583 11.6667 9.99994 11.6667ZM10.8333 15H9.1666V13.3333H10.8333V15Z" fill="#F2A000"/>
</svg>
