<svg width="24" height="27" viewBox="0 0 24 27" fill="none" xmlns="http://www.w3.org/2000/svg">
<path fill-rule="evenodd" clip-rule="evenodd" d="M22.5522 0.89825C23.8985 2.15726 23.9718 4.27195 22.7158 5.62154L12.6422 16.4463C12.0202 17.1147 11.1523 17.4985 10.2405 17.5084C9.32878 17.5183 8.45278 17.1534 7.81653 16.4987L1.43895 9.93596C0.154195 8.61391 0.181811 6.49813 1.50064 5.21023C2.81946 3.92233 4.93008 3.95001 6.21484 5.27206L7.06318 6.14502C8.13908 7.25215 8.67703 7.80571 9.29872 8.00718C9.84519 8.18428 10.4346 8.17791 10.9771 7.98904C11.5943 7.77417 12.1201 7.2091 13.1719 6.07897L17.8405 1.06225C19.0964 -0.287337 21.2059 -0.360763 22.5522 0.89825Z" fill="#F7931A"/>
<path d="M4.21499 16.6847L1.03154 19.9527C-0.369702 21.3911 -0.339583 23.6931 1.09882 25.0944C2.53721 26.4957 4.8392 26.4656 6.24045 25.0271L7.3554 23.8826C8.45965 22.749 9.01178 22.1823 9.64638 21.9832C10.204 21.8083 10.8039 21.8238 11.3518 22.0272C11.9753 22.2587 12.4974 22.8532 13.5418 24.0422L14.892 25.5794C16.2618 27.0478 18.5626 27.1277 20.031 25.7578C21.4994 24.388 21.5792 22.0872 20.2094 20.6188L16.4062 16.3834L14.628 18.2943C13.5005 19.5057 11.9258 20.2028 10.27 20.2208C8.61411 20.2387 7.02462 19.5759 5.87123 18.3891L4.21499 16.6847Z" fill="#6E6E6E"/>
</svg>
