<svg width="11" height="11" viewBox="0 0 11 11" fill="none" xmlns="http://www.w3.org/2000/svg">
<path d="M5.15999 1.90894C5.37465 1.90908 5.54907 2.08332 5.54907 2.29801V4.92131L7.24268 5.76839C7.43456 5.86454 7.513 6.0982 7.41699 6.2902C7.32098 6.48207 7.08716 6.55963 6.89518 6.46395L4.98625 5.5092C4.85461 5.44337 4.77105 5.30886 4.77091 5.1617V2.29801C4.77091 2.08324 4.94522 1.90894 5.15999 1.90894Z" fill="#67C23A"/>
<path fill-rule="evenodd" clip-rule="evenodd" d="M5.16113 0C8.01161 0 10.3228 2.3111 10.3228 5.1617C10.3227 8.0122 8.01153 10.3234 5.16113 10.3234C2.31095 10.3232 0.000125868 8.01204 0 5.1617C0 2.31126 2.31087 0.000251711 5.16113 0ZM5.16113 0.778158C2.74048 0.778409 0.778158 2.74076 0.778158 5.1617C0.778283 7.58253 2.74056 9.545 5.16113 9.54525C7.58192 9.54525 9.54455 7.58269 9.54468 5.1617C9.54468 2.74061 7.582 0.778158 5.16113 0.778158Z" fill="#67C23A"/>
</svg>
